<!-- Generated by IcoMoon.io -->
<svg version="1.1" xmlns="http://www.w3.org/2000/svg" width="1024" height="1024" viewBox="0 0 1024 1024">
<g id="icomoon-ignore">
</g>
<path fill="#000" d="M1014.624 969.024l-310.944-312.832c57.952-69.408 92.864-158.72 92.864-256.224 0-220.928-179.072-400-400-400s-400 179.072-400 400 179.072 400 400 400c100.352 0 192.064-37.056 262.304-98.144l310.496 312.448c12.48 12.48 32.768 12.48 45.28 0s12.48-32.736 0-45.28zM396.576 736.512c-185.856 0-336.544-150.688-336.544-336.544s150.656-336.544 336.544-336.544c185.856 0 336.512 150.656 336.512 336.544s-150.688 336.544-336.544 336.544z"></path>
</svg>
